<?xml version="1.0" encoding="UTF-8" standalone="no"?>
<svg
   xmlns:dc="http://purl.org/dc/elements/1.1/"
   xmlns:cc="http://creativecommons.org/ns#"
   xmlns:rdf="http://www.w3.org/1999/02/22-rdf-syntax-ns#"
   xmlns:svg="http://www.w3.org/2000/svg"
   xmlns="http://www.w3.org/2000/svg"
   xmlns:sodipodi="http://sodipodi.sourceforge.net/DTD/sodipodi-0.dtd"
   xmlns:inkscape="http://www.inkscape.org/namespaces/inkscape"
   viewBox="0 0 800 600"
   id="svg2"
   version="1.1"
   inkscape:version="0.48.4 r9939"
   width="100%"
   height="100%"
   sodipodi:docname="java.svg">
  <metadata
     id="metadata32">
    <rdf:RDF>
      <cc:Work
         rdf:about="">
        <dc:format>image/svg+xml</dc:format>
        <dc:type
           rdf:resource="http://purl.org/dc/dcmitype/StillImage" />
        <dc:title></dc:title>
      </cc:Work>
    </rdf:RDF>
  </metadata>
  <defs
     id="defs30" />
  <sodipodi:namedview
     pagecolor="#ffffff"
     bordercolor="#666666"
     borderopacity="1"
     objecttolerance="10"
     gridtolerance="10"
     guidetolerance="10"
     inkscape:pageopacity="0"
     inkscape:pageshadow="2"
     inkscape:window-width="1574"
     inkscape:window-height="975"
     id="namedview28"
     showgrid="false"
     inkscape:zoom="0.99980013"
     inkscape:cx="261.08822"
     inkscape:cy="306.16293"
     inkscape:window-x="2518"
     inkscape:window-y="88"
     inkscape:window-maximized="0"
     inkscape:current-layer="svg2" />
  <g
     id="g3861"
     transform="matrix(0.81569306,0,0,0.81569306,125.16572,104.20613)">
    <path
       sodipodi:nodetypes="scssccssscsssssccssssccccc"
       inkscape:connector-curvature="0"
       d="m 464.67089,161.81296 c -44.48833,0 -84.73846,11.04628 -114.09375,29 -14.67602,8.97658 -26.63458,19.65591 -35.0625,31.84375 -8.42792,12.18783 -13.4375,26.15683 -13.4375,41.28125 0,5.93998 0.79908,11.70089 2.25,17.25 1.43919,34.25197 6.79694,64.8011 15.1875,91.5 -17.78845,10.6342 -29.61622,21.65794 -39.6875,35.71875 -10.20198,14.24324 -16.06611,30.6454 -15.25,48.375 0.81609,17.72959 8.18017,33.65983 19.65625,47.09375 11.47607,13.43391 27.2708,24.88044 46.375,34.25 38.21003,18.73901 89.74309,29.10521 146.0625,27 56.3194,-2.10522 106.73954,-16.2872 143.09375,-37.8125 18.17712,-10.76266 32.89178,-23.31925 43.09375,-37.5625 10.20196,-14.24325 16.06611,-30.67666 15.25,-48.40625 -0.81611,-17.7296 -8.18018,-33.65983 -19.65625,-47.09375 -10.96918,-12.84056 -25.89572,-23.87036 -43.875,-33 6.97718,-26.07912 11.25713,-55.54323 12.125,-88.25 0.39858,-2.96497 0.59375,-5.99872 0.59375,-9.0625 0,-15.12442 -5.00942,-29.09342 -13.4375,-41.28125 -8.42809,-12.18784 -20.38648,-22.86736 -35.0625,-31.84375 -29.35203,-17.95276 -69.63421,-29 -114.125,-29 z m 147.40625,198.1875 c -0.0686,-0.0337 -0.0914,-0.0144 -0.125,-0.0312 -0.0425,0.006 0.16305,0.0512 0.125,0.0312 z m 1.9375,6.4375 c -31.93433,332.41001 -15.96716,166.20501 0,0 z"
       style="fill:#005a96;fill-opacity:1;fill-rule:evenodd"
       id="path8-6" />
    <path
       d="m 322.50886,376.76777 c -17.55933,10.39678 -28.88768,20.84911 -37.97664,33.53883 -9.08896,12.68972 -16.4739,32.63851 -15.89935,45.10794 0.57453,12.46943 5.89227,26.08629 16.11643,38.05383 10.22417,11.96755 29.40591,26.47037 47.86048,35.52144 36.90998,18.10218 90.41628,28.32465 145.94407,26.24912 55.52778,-2.07552 109.03164,-21.1489 144.14864,-41.94245 17.55931,-10.39678 28.79055,-22.39785 37.87951,-35.08661 9.08896,-12.68876 10.50572,-25.34401 9.93118,-37.8144 -0.57453,-12.47037 0.35991,-25.10646 -9.86344,-37.07401 -10.22335,-11.96755 -27.26117,-29.09853 -45.71657,-38.14961 -1.97489,-0.96862 0.0922,-1.25049 -1.39701,-4.05805 1.6327,-1.42691 -1.57028,-2.86781 -0.54303,-2.36401 19.10421,9.36955 34.90155,20.80026 46.37762,34.23418 11.47607,13.43392 18.85366,29.36383 19.66977,47.09343 0.81611,17.72959 -5.07226,34.15564 -15.27422,48.39889 -10.20197,14.24325 -24.89528,26.8142 -43.0724,37.57686 -36.35421,21.5253 -86.76829,35.71109 -143.08769,37.81631 -56.31941,2.10521 -107.86461,-8.27059 -146.07465,-27.0096 -19.1042,-9.36956 -34.90155,-20.80027 -46.37762,-34.23418 -11.47607,-13.43392 -18.85366,-29.36384 -19.66975,-47.09343 -0.81611,-17.7296 5.07225,-34.15565 15.27422,-48.39889 10.20196,-14.24326 22.18989,-25.36029 40.367,-36.12294"
       id="path8"
       inkscape:connector-curvature="0"
       style="fill:#000000;fill-rule:evenodd" />
    <path
       d="m 627.31593,258.6439 -322.01057,0.64081 h -0.4708 v 0.64082 c -0.44182,159.58647 81.65131,245.43291 162.50285,245.29882 80.85152,-0.13408 160.4544,-86.24776 160.4544,-245.93096 v -0.64081 h -0.47077 z m -0.47079,1.28162 c -0.21877,158.667 -81.80637,226.49747 -162.08662,226.63155 -80.2876,0.13498 -159.21394,-67.40617 -158.98543,-225.98984 l 321.07205,-0.64082 z"
       id="path10"
       inkscape:connector-curvature="0"
       style="fill:#000000" />
    <path
       d="m 465.60471,160.56651 c -44.48833,0 -84.76067,11.01551 -114.11597,28.96923 -14.67602,8.97658 -26.62461,19.66816 -35.05253,31.856 -8.42792,12.18783 -13.44777,26.17535 -13.44777,41.29977 0,15.12442 5.0197,29.11194 13.44777,41.29977 8.42809,12.18785 20.37651,22.87962 35.05253,31.85601 29.35204,17.95275 69.62519,28.96922 114.11597,28.96922 44.49079,0 84.76067,-11.01551 114.11597,-28.96922 14.67602,-8.97658 26.62461,-19.66816 35.05253,-31.85601 8.42792,-12.18783 13.44778,-26.17535 13.44778,-41.29977 0,-15.12442 -5.0197,-29.11194 -13.44778,-41.29977 -8.42809,-12.18784 -20.37651,-22.87961 -35.05253,-31.856 -29.35203,-17.95276 -69.62518,-28.96923 -114.11597,-28.96923 z m 0,8.07405 c 44.06477,0 83.94457,10.98677 112.6225,28.52864 14.33978,8.77066 25.87543,19.20747 33.67412,30.48541 7.79871,11.27794 11.7666,23.07979 11.7666,35.03681 0,11.95701 -3.96764,23.7579 -11.7666,35.0368 -7.79894,11.2789 -19.33515,21.71495 -33.67412,30.48541 -28.67875,17.54091 -68.56017,28.52864 -112.6225,28.52864 -44.06233,0 -83.94456,-10.98677 -112.6225,-28.52864 -14.33977,-8.77065 -25.87542,-19.20747 -33.67412,-30.48541 -7.7987,-11.27794 -11.7666,-23.07979 -11.7666,-35.0368 0,-11.95702 3.96766,-23.75887 11.7666,-35.03681 7.79894,-11.27794 19.33516,-21.71495 33.67412,-30.48541 28.67876,-17.54091 68.56017,-28.52864 112.6225,-28.52864 z"
       id="path12"
       inkscape:connector-curvature="0"
       style="fill:#000000;fill-rule:evenodd" />
    <path
       d="m 303.9976,245.94107 c -58.38678,-31.48797 -71.3494,-2.17747 -63.30452,31.16788 2.15112,8.91654 5.80421,18.12154 10.49252,26.5297 13.39806,24.02757 39.18305,63.73107 65.22838,71.79616 0.65319,-1.25107 0.0342,-0.18716 -0.12449,-0.77736 -47.86251,-15.04537 -94.30246,-146.34266 -9.11257,-94.47347 0.44555,0.2883 -2.8424,-33.63073 -3.17922,-34.24309 z"
       id="path14"
       inkscape:connector-curvature="0"
       style="fill:#000000;stroke:#000000;stroke-width:2.96569896;stroke-miterlimit:4;stroke-dasharray:none" />
    <path
       d="m 622.07156,265.77163 c 0,48.08114 -69.48633,87.05907 -155.2031,87.05907 -85.71676,0 -155.20309,-38.97793 -155.20309,-87.05907 0,-48.08114 69.48633,-87.05908 155.20309,-87.05908 85.71677,0 155.2031,38.97794 155.2031,87.05908 z"
       id="path16"
       inkscape:connector-curvature="0"
       style="fill:#af753d;fill-rule:evenodd;stroke:#000000;stroke-width:2.75893188" />
    <path
       d="m 464.6106,277.49136 c 5.95932,1.82213 -2.29073,4.92572 -6.44961,4.96487 -11.27043,0.10634 -15.91439,-6.42836 -13.36012,-11.02225 4.56908,-8.21683 24.25982,-11.4476 39.15858,-8.83769 21.86441,3.83012 29.36409,16.84361 20.27005,27.00843 -12.12159,13.54892 -46.01008,18.48705 -71.86813,12.71051 -32.53927,-7.26978 -43.1348,-27.37362 -27.18152,-42.99553 19.32349,-18.92057 67.85706,-25.60214 104.57766,-16.58286 43.27219,10.62869 56.98872,37.92718 34.09107,58.98267 -26.43659,24.30996 -89.73696,32.74338 -137.28527,20.45613 -54.02831,-13.96146 -70.87745,-48.48975 -41.00061,-74.9698 33.5164,-29.70649 111.62846,-39.89527 169.99482,-24.32849 64.79798,17.28167 84.77973,59.05785 47.91208,90.95691"
       id="path18"
       inkscape:connector-curvature="0"
       style="fill:none;stroke:#784421;stroke-width:6.46911573" />
    <path
       sodipodi:nodetypes="ccccccc"
       inkscape:connector-curvature="0"
       id="path3792"
       d="m 533.97234,223.744 c -31.77486,-63.90316 33.64257,-102.24669 56.57985,-135.791645 18.36694,-14.883239 7.67109,-12.60518 73.55381,-42.434898 -59.64867,2.622213 -86.67668,23.173198 -138.62064,65.066833 -11.55442,14.07594 -60.20177,38.89865 -30.41167,114.5742 13.43772,15.55946 -9.19422,34.65516 -13.43771,57.2871 27.56415,-10.01009 54.37408,-35.24401 52.33636,-58.70159 z"
       style="fill:#cccccc;stroke:#999999;stroke-width:1px;stroke-linecap:butt;stroke-linejoin:miter;stroke-opacity:1" />
    <path
       sodipodi:nodetypes="cccsccscc"
       inkscape:connector-curvature="0"
       id="path3794"
       d="M 451.22432,285.27458 C 428.59238,240.71795 410.20392,219.5005 399.5952,181.3091 c 7.07248,-62.94508 53.73838,-69.50791 100.42924,-110.330709 17.91245,-31.118918 22.13226,-59.731415 18.43459,-86.679725 -3.69768,-26.948309 -24.73831,-53.646926 -36.11579,-69.622114 16.97395,66.481325 29.06233,72.359308 -7.07249,132.96265 -18.74208,15.913083 -39.72983,18.318179 -71.69728,46.14794 -14.20939,12.370198 -50.65665,42.611698 -44.99867,72.669748 19.0957,61.53059 31.82618,71.43206 92.64952,118.81769 z"
       style="fill:#cccccc;stroke:#999999;stroke-width:1px;stroke-linecap:butt;stroke-linejoin:miter;stroke-opacity:1" />
    <text
       transform="matrix(0,-1.0792822,0.92654173,0,0,0)"
       sodipodi:linespacing="125%"
       id="text3796"
       y="245.02898"
       x="-512.9137"
       style="font-size:288.64544678px;font-style:normal;font-weight:normal;line-height:125%;letter-spacing:0px;word-spacing:0px;fill:#000000;fill-opacity:1;stroke:none;font-family:Sans"
       xml:space="preserve"><tspan
         style="font-style:normal;font-variant:normal;font-weight:normal;font-stretch:normal;fill:#ff0000;font-family:'36 days ago Thick BRK';-inkscape-font-specification:'36 days ago Thick BRK'"
         y="245.02898"
         x="-512.9137"
         id="tspan3798"
         sodipodi:role="line">Java</tspan></text>
  </g>
</svg>
